<svg width="68" height="51" viewBox="0 0 68 51" fill="none" xmlns="http://www.w3.org/2000/svg">
<path d="M58.0984 32.2544H20.9413V30.3966C20.9413 26.2926 17.6139 22.9652 13.5099 22.9652H7.9363C3.8323 22.9652 0.504883 26.2926 0.504883 30.3966V35.9701C0.504883 40.0741 3.8323 43.4016 7.9363 43.4016H59.9562C64.0602 43.4016 67.3877 40.0741 67.3877 35.9701V32.2544H58.0984Z" fill="#99AAB5"/>
<path d="M19.0834 8.10232H13.7811C7.9363 8.10232 6.07845 11.818 6.07845 11.818L0.504883 22.889V32.2544H24.657V13.6759C24.657 10.5974 22.1619 8.10232 19.0834 8.10232Z" fill="#FFCC4D"/>
<path d="M17.2257 22.9652H4.2207L7.93641 15.5337C7.93641 15.5337 9.79427 11.818 13.51 11.818H17.2257V22.9652Z" fill="#55ACEE"/>
<path d="M11.6521 50.833C15.7564 50.833 19.0835 47.5058 19.0835 43.4016C19.0835 39.2973 15.7564 35.9701 11.6521 35.9701C7.54786 35.9701 4.2207 39.2973 4.2207 43.4016C4.2207 47.5058 7.54786 50.833 11.6521 50.833Z" fill="#292F33"/>
<path d="M11.6522 47.1173C13.7044 47.1173 15.3679 45.4537 15.3679 43.4016C15.3679 41.3494 13.7044 39.6859 11.6522 39.6859C9.6001 39.6859 7.93652 41.3494 7.93652 43.4016C7.93652 45.4537 9.6001 47.1173 11.6522 47.1173Z" fill="#CCD6DD"/>
<path d="M56.2405 50.833C60.3448 50.833 63.6719 47.5058 63.6719 43.4016C63.6719 39.2973 60.3448 35.9701 56.2405 35.9701C52.1362 35.9701 48.8091 39.2973 48.8091 43.4016C48.8091 47.5058 52.1362 50.833 56.2405 50.833Z" fill="#292F33"/>
<path d="M56.2406 47.1173C58.2927 47.1173 59.9563 45.4537 59.9563 43.4016C59.9563 41.3494 58.2927 39.6859 56.2406 39.6859C54.1885 39.6859 52.5249 41.3494 52.5249 43.4016C52.5249 45.4537 54.1885 47.1173 56.2406 47.1173Z" fill="#CCD6DD"/>
<path d="M37.6619 50.833C41.7661 50.833 45.0933 47.5058 45.0933 43.4016C45.0933 39.2973 41.7661 35.9701 37.6619 35.9701C33.5576 35.9701 30.2305 39.2973 30.2305 43.4016C30.2305 47.5058 33.5576 50.833 37.6619 50.833Z" fill="#292F33"/>
<path d="M37.662 47.1173C39.7141 47.1173 41.3777 45.4537 41.3777 43.4016C41.3777 41.3494 39.7141 39.6859 37.662 39.6859C35.6099 39.6859 33.9463 41.3494 33.9463 43.4016C33.9463 45.4537 35.6099 47.1173 37.662 47.1173Z" fill="#CCD6DD"/>
<path d="M59.9561 0.670898H35.804C31.7 0.670898 28.3726 3.99832 28.3726 8.10232V32.2544H67.3875V8.10232C67.3875 3.99832 64.0601 0.670898 59.9561 0.670898Z" fill="#77B255"/>
</svg>
